# xmcd
#
# Track frame offsets:
#	150
#	11738
#	28209
#	38640
#	54371
#	70277
#	86606
#	103439
#	118219
#	131684
#	144630
#	162125
#	177439
#	191420
#	206019
#	219964
#	232856
#	250748
#	266248
#	280650
#
# Disc length: 3945 seconds
#
# Revision: 1
# Processed by: cddbd v1.5.2PL0 Copyright (c) Steve Scherf et al.
# Submitted via: audiograbber 1.83.01
#
DISCID=270f6714
DTITLE=Various Artist - Winterwunderland
DYEAR=2005
DGENRE=christmas
TTITLE0=Orchester Erich Becht - Winterwunderland
TTITLE1=Oliver Thomas - Wintertag
TTITLE2=Tom Astor and Bad Fredeburger Kinderchor - Frosti Der Schneeman
TTITLE3=Stefanie Hertel - Leben Und Leben Lassen
TTITLE4=Kasthelruther Spatzen - Du
TTITLE5=Seer - Sun, Wind and Regen
TTITLE6=Die Schäfer - Märchenzeit
TTITLE7=Alpentrio Tirol - Kunder Brauchen Liebe
TTITLE8=Marcel - Mein Lied Für Dich
TTITLE9=Siegfried Fietz (Rucky Reiselustig) - Ich Will Kind Sein
TTITLE10=Judith and Mel - Die Welt Könnte Schön Sein
TTITLE11=Oswald Sattler - So Weit Von Daheim
TTITLE12=Allgäupower - Wei Ein Licht In Dunkler Nacht
TTITLE13=Bianca - Es War Nur Ein Traum
TTITLE14=Stafan Mross - I Schenk Dir Mein' Herzschlag
TTITLE15=Astrid Harzbecker - Gebet Für Tiere
TTITLE16=Kristina Bach - Du bist verrückt, dass du mich liebst
TTITLE17=Monika Martin - Ave Maria no morro
TTITLE18=Die jungen Tenöre - Hallelujah
TTITLE19=Schürzenjäger - A Weihnacht wie's früher war (version 2005)
EXTD=
EXTT0=
EXTT1=
EXTT2=
EXTT3=
EXTT4=
EXTT5=
EXTT6=
EXTT7=
EXTT8=
EXTT9=
EXTT10=
EXTT11=
EXTT12=
EXTT13=
EXTT14=
EXTT15=
EXTT16=
EXTT17=
EXTT18=
EXTT19=
PLAYORDER=
